# xmcd
#
# Track frame offsets:
#  150
#  19963
#  37893
#  53632
#  77557
#  96234
#  126007
#  147255
#  168747
#  192102
#
# Disc length: 2903 seconds
#
# Revision: 1
# Processed by: cddbd v1.5.1PL2 Copyright (c) Steve Scherf et al.
# Submitted via: Collectorz.com_Music_Collector 6.11
#
DISCID=7e0b550a
DTITLE=Lou DeAdder - Slow Down
DYEAR=2006
DGENRE=Blues
TTITLE0=Ain't Got Two Nickels - Ain't Got Two Nickels
TTITLE1=Slow Down - Slow Down
TTITLE2=Chills - Chills
TTITLE3=Wobbly Pop - Wobbly Pop
TTITLE4=Searchin' For My Baby - Searchin' For My Baby
TTITLE5=Comin' Home - Comin' Home
TTITLE6=Goin' Down To Texas - Goin' Down To Texas
TTITLE7=Believe - Believe
TTITLE8=Without You - Without You
TTITLE9=Funky Strudle - The Funky Strudel
EXTD=
EXTT0=
EXTT1=
EXTT2=
EXTT3=
EXTT4=
EXTT5=
EXTT6=
EXTT7=
EXTT8=
EXTT9=
PLAYORDER=
